{"title":"DJ Khaled Ft. Drake, Rick Ross &amp; Lil Wayne - No New Friends ","uid":8893147,"size":163467752,"categoryP":"video","categoryS":"music_videos","magnet":"?xt=urn:btih:5b8a79c2aae009510e56c4da5c2205a7e9741bf2&amp;dn=DJ+Khaled+Ft.+Drake%2C+Rick+Ross+%26amp%3B+Lil+Wayne+-+No+New+Friends+&amp;tr=udp%3A%2F%2Ftracker.openbittorrent.com%3A80&amp;tr=udp%3A%2F%2Fopen.demonii.com%3A1337&amp;tr=udp%3A%2F%2Ftracker.coppersurfer.tk%3A6969&amp;tr=udp%3A%2F%2Fexodus.desync.com%3A6969","seeders":5,"leechers":1,"uploader":"Sbyky","files":-1,"time":1378635313,"description":"[IMG]http://yuq.me/users/18/139/VqueTpRCod.png[/IMG]\n\nGeneral\nComplete name                            : DJ Khaled Ft. Drake, Rick Ross &amp; Lil Wayne - No New Friends [Explicit] 1080p [Sbyky].MP4\nFormat                                   : MPEG-4\nFormat profile                           : Base Media / Version 2\nCodec ID                                 : mp42\nFile size                                : 156 MiB\nDuration                                 : 5mn 1s\nOverall bit rate mode                    : Variable\nOverall bit rate                         : 4 336 Kbps\nEncoded date                             : UTC 2013-08-26 21:34:41\nTagged date                              : UTC 2013-08-26 21:34:41\n\nVideo\nID                                       : 1\nFormat                                   : AVC\nFormat/Info                              : Advanced Video Codec\nFormat profile                           : &lt;a class=&quot;__cf_email__&quot; href=&quot;/cdn-cgi/l/email-protection&quot; data-cfemail=&quot;034b6a646b434f372d33&quot;&gt;[email&amp;#160;protected]&lt;/a&gt;&lt;script cf-hash='f9e31' type=&quot;text/javascript&quot;&gt;\n/* &lt;![CDATA[ */!function(){try{var t=&quot;currentScript&quot;in document?document.currentScript:function(){for(var t=document.getElementsByTagName(&quot;script&quot;),e=t.length;e--;)if(t[e].getAttribute(&quot;cf-hash&quot;))return t[e]}();if(t&amp;&amp;t.previousSibling){var e,r,n,i,c=t.previousSibling,a=c.getAttribute(&quot;data-cfemail&quot;);if(a){for(e=&quot;&quot;,r=parseInt(a.substr(0,2),16),n=2;a.length-n;n+=2)i=parseInt(a.substr(n,2),16)^r,e+=String.fromCharCode(i);e=document.createTextNode(e),c.parentNode.replaceChild(e,c)}}}catch(u){}}();/* ]]&gt; */&lt;/script&gt;\nFormat settings, CABAC                   : Yes\nFormat settings, ReFrames                : 1 frame\nCodec ID                                 : avc1\nCodec ID/Info                            : Advanced Video Coding\nDuration                                 : 5mn 1s\nBit rate                                 : 4 142 Kbps\nMaximum bit rate                         : 46.5 Mbps\nWidth                                    : 1 920 pixels\nHeight                                   : 1 080 pixels\nDisplay aspect ratio                     : 16:9\nFrame rate mode                          : Constant\nFrame rate                               : 23.976 fps\nColor space                              : YUV\nChroma subsampling                       : 4:2:0\nBit depth                                : 8 bits\nScan type                                : Progressive\nBits/(Pixel*Frame)                       : 0.083\nStream size                              : 149 MiB (96%)\nTagged date                              : UTC 2013-08-26 21:35:46\n\nAudio\nID                                       : 2\nFormat                                   : AAC\nFormat/Info                              : Advanced Audio Codec\nFormat profile                           : LC\nCodec ID                                 : 40\nDuration                                 : 5mn 1s\nBit rate mode                            : Variable\nBit rate                                 : 192 Kbps\nMaximum bit rate                         : 201 Kbps\nChannel(s)                               : 2 channels\nChannel positions                        : Front: L R\nSampling rate                            : 44.1 KHz\nCompression mode                         : Lossy\nStream size                              : 6.90 MiB (4%)\nTitle                                    : IsoMedia File Produced by Google, 5-11-2011\nEncoded date                             : UTC 2013-08-26 21:35:27\nTagged date                              : UTC 2013-08-26 21:35:46\n\nShared By Sbyky\n[IMG]http://yuq.me/users/18/139/0aq32UMZvX.gif[/IMG]\n[IMG]http://yuq.me/users/18/139/bQg62viaEG.gif[/IMG]","torrent":{"xt":"urn:btih:5b8a79c2aae009510e56c4da5c2205a7e9741bf2","amp;dn":"DJ+Khaled+Ft.+Drake%2C+Rick+Ross+%26amp%3B+Lil+Wayne+-+No+New+Friends+","amp;tr":["udp%3A%2F%2Ftracker.openbittorrent.com%3A80","udp%3A%2F%2Fopen.demonii.com%3A1337","udp%3A%2F%2Ftracker.coppersurfer.tk%3A6969","udp%3A%2F%2Fexodus.desync.com%3A6969"],"infoHash":"5b8a79c2aae009510e56c4da5c2205a7e9741bf2","infoHashBuffer":{"type":"Buffer","data":[91,138,121,194,170,224,9,81,14,86,196,218,92,34,5,167,233,116,27,242]},"announce":[],"urlList":[]}}